<?xml version="1.0" encoding="UTF-8"?>
<svg id="_Слой_1" data-name="Слой 1" xmlns="http://www.w3.org/2000/svg" width="2400" height="1200" viewBox="0 0 2400 1200">
  <defs>
    <style>
      .cls-1 {
        fill: #fff;
        stroke-width: 0px;
      }
    </style>
  </defs>
  <path class="cls-1" d="m930.36,620.97c8.52,6.52,9.75,9.92,5.48,18.48-3.5,7.01-5.19,13.97-4.33,21.74.35,3.15-.1,6.42-.41,9.61-1.4,14.5-10.46,23.54-24.89,22.95-18.76-.77-37.5-2.45-56.17-4.44-6.11-.65-9.13,1.59-10.96,6.61-2.66,7.3-4.9,14.76-7.73,21.99-.75,1.91-2.98,4.58-4.58,4.61-15.1.35-30.2.21-46.15.21,4.04-13.16,7.95-26.68,12.38-40.03,2.58-7.79,5.74-15.42,9.07-22.93,2.68-6.04,7.56-8.03,14.15-6.62,13.88,2.97,27.82,5.66,41.73,8.48,15.08,3.06,23.06-.34,28.24-14.6,9.53-26.21,18.27-52.72,26.89-79.24,3.6-11.08,2.02-22.5-2.12-33.06-5.97-15.21-6.4-28.48,1.15-44.47,11.75-24.87,4.98-50.62-7.69-73.85-21.68-39.73-56.52-60.88-100.82-66.62-31-4.02-60.76,1.01-88.63,15.53-37.89,19.75-58.73,52.19-67.45,92.95-9.09,42.5-1.95,82.26,26.74,115.5,23.76,27.52,26.41,57.66,18.25,90.72-4.38,17.75-9.12,35.42-13.41,53.2-1.19,4.93-3.57,6.54-8.53,6.17-6.15-.46-12.35-.11-19.28-.11,3.08-9.49,6.48-18.79,9.09-28.31,4.17-15.22,7.99-30.54,11.64-45.89,3.56-14.98.58-29.26-6.39-42.59-7.42-14.19-16.54-27.56-23.2-42.07-28.39-61.82-25.58-121.61,15.65-177,23.3-31.3,56.22-48.87,94.31-55.55,46.99-8.24,91.83-1.3,131.01,26.99,46.01,33.21,64.07,78.95,55.01,135.21-.43,2.66.38,5.91,1.62,8.38,9.77,19.42,19.82,38.71,29.71,58.07,5.83,11.4,1.26,20.47-11.38,22.47-3.6.57-7.35.22-10.97.7-7.66,1.01-10.7,5.59-8.68,13.05,2.59,9.57,5.92,19.24-8.35,23.78Z"/>
  <path class="cls-1" d="m778.85,404.23c16.74,3.26,33.11,6.45,49.82,9.7,4.59-10.78,12.17-17.12,24.35-16.43,12.67.72,21.97,10.42,21.85,22.82-.12,12.66-9.94,23.18-22.66,22.63-6.37-.28-9.47,1.97-12.21,6.99-2.85,5.22-6.3,10.1-9.49,15.14-3.07,4.84-6.14,9.68-9.5,14.98,7.4,7.13,12.54,15.87,10.71,26.53-1.04,6.05-3.39,12.56-7.12,17.32-9.61,12.31-24.78,13.82-41.29,5.14-9.12,8.47-18.45,16.93-27.44,25.74-1.26,1.23-1.39,4.33-1.02,6.38,3.03,16.76-10.15,30.36-25.58,26.19-12.83-3.47-19.38-18.35-12.79-30.28,2.11-3.82,1.81-6.25-.32-9.7-7-11.29-13.8-22.72-20.35-34.28-2.14-3.77-4.28-5.55-9.01-5.27-10.2.6-17.67-4.55-22-13.55-4.3-8.94-3.61-18,2.5-25.93,6.12-7.94,14.36-10.89,24.41-8.74,1.99.43,4.88,0,6.35-1.23,3.13-2.63,5.59-6.04,8.32-9.15,6.96-7.92,13.91-15.85,21.02-23.97-7.5-13.17-9.67-26.51.54-39.02,7.58-9.28,18.18-11.15,29.41-8.64,11.12,2.49,18.13,11.46,21.47,26.59Zm2.86,76.33c-7.84-14.64-16.1-30.1-23.79-44.47-7.34-.45-13.57-.83-20.94-1.28-9.57,11.02-20.04,23.07-29.34,33.79-.42,13.1,8.08,13.52,16.42,14.7,12.2,1.74,24.41,3.6,36.48,6.12,8.88,1.85,17.16,3.74,21.18-8.86Zm-52.29,63.28c5.05.64,8.59,1.25,12.16,1.47,1.77.11,4.15.13,5.3-.89,9.57-8.5,18.92-17.25,27.95-25.56-1.06-3.99-1.56-7.47-2.97-10.53-.83-1.82-2.92-3.96-4.74-4.29-16.87-3.05-33.91-5.29-50.68-8.76-6.77-1.4-10.2.28-12.24,6.49,8.55,14.25,17.13,28.57,25.23,42.07Zm79.51-69.44c7.48-11.76,14.89-23.33,22.23-34.95,2.49-3.95-.61-11.8-5.18-12.69-16.56-3.24-33.16-6.29-49.5-9.37-1.79,2.91-3.47,5.13-4.57,7.61-.79,1.8-1.75,4.43-1.02,5.86,7.61,14.82,15.56,29.47,23.08,43.55h14.95Z"/>
  <path class="cls-1" d="m1099.64,502.52h-22.07v-117.1c4.78,0,9.77-.44,14.62.22,1.92.26,3.94,2.66,5.18,4.57,13.61,20.87,27.07,41.84,41.5,64.22v-68.62h22.86v116.82c-5.48,0-11.12.35-16.67-.21-1.69-.17-3.49-2.6-4.64-4.39-13.5-20.92-26.89-41.91-40.77-63.6v68.09Z"/>
  <path class="cls-1" d="m1331.29,600.92c-1.35,7.18-2.24,17.32-5.24,26.8-5.96,18.85-21.55,29.95-40.6,30.42-24.45.6-39.82-8.24-47.59-28.39-7.43-19.26-7.41-39.17-1.61-58.72,7.06-23.79,24.67-34.51,51.37-32.65,20.65,1.45,37.49,17.51,41.31,39.79,1.12,6.52,1.4,13.19,2.36,22.75Zm-24.09-4.72c-1.11-6.36-1.67-14.69-4.13-22.4-3.25-10.15-12.29-15.08-23.2-14.39-11.28.71-19.57,6.3-20.81,17.24-1.52,13.49-2,27.39-.48,40.84,1.52,13.45,10.53,19.88,22.93,20,12.71.12,20.23-5.93,23.23-19.67,1.41-6.43,1.54-13.13,2.46-21.61Z"/>
  <path class="cls-1" d="m1128.59,540.01h22.44v47.21h41.35v-47.08h22.14v116.37h-21.76v-47.46h-41.44v47.57h-22.73v-116.61Z"/>
  <path class="cls-1" d="m1110.34,575.94h-21.94c-.42-1.72-.83-3.48-1.28-5.22-3.12-12.04-17.69-16.63-27.23-8.59-5.6,4.72-6.03,12.67-.34,17.35,3.08,2.54,7.02,4.22,10.82,5.66,6.83,2.59,14.02,4.28,20.76,7.08,21.62,8.98,27.83,32.64,14.08,51.61-16.67,23.01-54.47,18.55-67.74,2.9-5.59-6.59-7.6-14.31-7.94-23.06h22.54c4.74,13.78,12.02,18.21,24.81,15.21,6.19-1.45,10-5.42,11.15-11.66,1.19-6.44-1.22-11.5-7.23-14.03-6.93-2.92-14.18-5.06-21.23-7.71-11.36-4.28-22.12-9.53-26.37-22.13-6.76-20.04,7.76-42.31,29.55-44.67,7.39-.8,15.26-.56,22.47,1.1,16.91,3.91,26.32,18,25.13,36.15Z"/>
  <path class="cls-1" d="m1370.25,618.27v38.2h-22.42v-115.56c17.02,0,34.08-1.64,50.68.43,18.88,2.36,29.44,18.7,28.67,39.25-.75,20.27-12.35,33.87-31.56,36.27-8.12,1.01-16.37.94-25.37,1.4Zm.41-58.28v37.74c10.63-1.36,22.53,4.06,29.79-7.6,4.68-7.53,4.72-16.09-.29-23.4-7.45-10.87-19.08-5.32-29.5-6.74Z"/>
  <path class="cls-1" d="m1659.89,463.68h23.05c.24,19.94-16.18,38.49-35.57,40.34-31.52,3-51.07-12.62-55.47-44.37-2.03-14.67-2.17-29.28,2.49-43.52,7.69-23.49,25.78-34.57,51.78-31.97,21.04,2.11,34.69,16.84,37.64,40.95h-24.31c-.35-1.34-.84-2.81-1.12-4.31-1.61-8.53-6.41-14.32-15.03-15.79-8.93-1.52-16.98.66-22.33,8.66-1.75,2.62-3.26,5.63-3.98,8.67-3.43,14.51-3.52,29.16.16,43.58,3.31,12.96,12.92,19.18,25.66,17.44,10.98-1.51,14.78-9.6,17.05-19.68Z"/>
  <path class="cls-1" d="m1336.97,502.44h-67.44v-116.53h66.04v20.14h-43.13v27.34h36.04v19.82h-36.06v28.36h44.54v20.86Z"/>
  <path class="cls-1" d="m1533.69,481.97h44.36v20.27h-66.91v-116.39h65.37v20.38h-42.86v27.14h36.03v20.04h-35.99v28.55Z"/>
  <path class="cls-1" d="m1227.34,502.39h-22.98v-95.84h-28.73v-20.75h80.07v20.27h-28.36v96.32Z"/>
  <path class="cls-1" d="m1691.68,406.43v-20.57h78.93v20.25h-28.01v96.06h-22.3v-95.73h-28.62Z"/>
  <path class="cls-1" d="m1455.91,385.79v96.01h40.59v20.43h-62.7v-116.44h22.11Z"/>
  <path class="cls-1" d="m1354.95,385.62h21.75v95.97h40.63v20.67h-62.38v-116.63Z"/>
  <path class="cls-1" d="m1033.18,385.67h21.38v116.58h-21.38v-116.58Z"/>
  <path class="cls-1" d="m1405.23,844.93c0,8.18.03,16.36-.16,24.53,0,.23-2.43.4-4.19.68v-39.09c4.33-1.57,6.75-.35,8.41,3.98,2.41,6.3,5.51,12.34,8.78,19.52,3.14-7.05,5.51-13.23,8.62-19,1.36-2.52,4.23-4.24,6.41-6.32.63.49,1.27.97,1.9,1.46v38.75c-.55.37-1.11.75-1.66,1.12-1.1-1.57-3.07-3.09-3.15-4.71-.35-7.05-.15-14.13-1.16-21.68-2.24,4.92-4.32,9.92-6.78,14.73-1.05,2.04-2.88,3.68-4.35,5.51-1.28-1.74-2.81-3.34-3.79-5.24-2.47-4.78-4.68-9.69-7-14.55-.63.1-1.25.21-1.88.31Z"/>
  <path class="cls-1" d="m866.11,830.49c3.88,0,7.63-.63,11.06.16,4.2.97,9.87,2.06,11.69,5.06,1.94,3.19.13,8.66-.09,14.44,3.14,2.17,4.99,6.83,2.98,12.47-1.98,5.57-6.86,6.98-12.15,7.18-4.33.16-8.66.03-13.48.03v-39.34Zm5.72,35.82c5.49-1.91,9.9-3.01,13.77-5.11.86-.46.47-6.13-.49-6.52-4.08-1.62-8.58-2.15-13.28-3.15v14.77Zm0-18.22c4.6-1.38,8.47-2.12,11.83-3.85.82-.42.69-5.55-.2-5.97-3.41-1.62-7.31-2.2-11.63-3.33v13.15Z"/>
  <path class="cls-1" d="m1031.43,801.05c-8.35,4.63-16.22,3.94-20.37-2.43-3.61-5.55-1.74-11.25,6.07-17.74-2.74-5.66-6.14-11.98,1.84-16.25,4.1-2.2,8.79-1.88,11.71,2.38,4.49,6.55.23,11.04-4.83,15.26,2.27,2.88,4.33,5.5,6.14,7.8,4.89-1.17-.73-10,7.27-8.48,3,6.83-7.15,14.67,2.55,20.74-.42.47-.84.95-1.25,1.42-2.79-.83-5.57-1.65-9.14-2.71Zm-1.79-5.36c-3.37-3.99-6.26-7.41-9.14-10.82-4.72,2.75-7.81,6.03-4.42,10.75,3.54,4.93,8.18,3.67,13.57.07Zm-9.2-18.16c1.54.22,3.09.44,4.63.66.36-2.86.82-5.71.88-8.57,0-.19-3.04-.44-4.66-.66-.28,2.86-.56,5.72-.84,8.57Z"/>
  <path class="cls-1" d="m837.72,846.05c2.6,9.13-7.47,16.65,3.21,22.87-.52.44-1.04.88-1.56,1.31-2.79-.84-5.59-1.68-9.27-2.79-8.44,4.47-16.15,3.86-20.36-2.33-3.85-5.66-2.39-9.87,6.17-17.85-4.13-8.24-4.02-12.94.87-15.79,4.37-2.55,8.89-2.48,12.4,1.69,3.6,4.27,2.19,9.31-4.57,15.95,1.93,2.51,3.93,5.1,6.89,8.94.84-3.37,1.05-5.55,1.95-7.4.72-1.47,2.28-2.52,4.26-4.59Zm-18.37,5.4c-4.52,2.73-7.94,5.42-4.75,10.58,2.49,4.03,7.49,3.91,13.16-.27-2.68-3.29-5.36-6.57-8.4-10.31Zm.32-7.2c1.22.14,2.44.28,3.66.42.56-2.87,1.12-5.75,1.69-8.62-1.78-.19-3.57-.37-5.35-.56v8.76Z"/>
  <path class="cls-1" d="m942.69,764.85v38.15c-.62.43-1.24.87-1.86,1.3-9.4-6.35-12.15-18.28-20.13-26.99v25.43c-3.99,1.41-6.01,1.24-5.94-3.34.16-11.43.05-22.86.05-36.51,3.1,2.16,5.63,3.11,6.87,4.94,5.09,7.46,9.78,15.2,15.92,22.56,0-7.38-.19-14.77.15-22.13.07-1.56,2.04-3.04,3.14-4.55.6.38,1.2.77,1.8,1.15Z"/>
  <path class="cls-1" d="m1506.89,870.57c-9.87-5.94-12.07-18.39-20.53-26.66v25.08c-.53.48-1.06.97-1.58,1.45-1.37-1.3-3.89-2.57-3.92-3.9-.31-11.89-.18-23.8.84-36.35,10.37,6.09,13.06,18.39,21.4,27.17v-26.22c4.09-1.44,5.93-.9,5.84,3.6-.22,11.45-.07,22.9-.07,34.35l-1.98,1.48Z"/>
  <path class="cls-1" d="m1714.9,791.94v-26.8c.56-.48,1.11-.96,1.67-1.44,1.37,1.29,3.9,2.54,3.94,3.86.31,11.86.18,23.74.18,37.67-11.9-6.91-13.93-19.47-22.39-27.93v25.6c-.66.41-1.33.82-1.99,1.22-1.22-1.46-3.46-2.89-3.49-4.38-.29-11.66-.16-23.33-.16-37.14,3.11,2.19,5.54,3.12,6.73,4.88,5.05,7.49,9.73,15.23,15.52,24.44Z"/>
  <path class="cls-1" d="m728.18,778.14c0,6.99-.21,13.99.08,20.96.17,4.29-1.5,5.13-5.45,4.13v-40.67c3.1,2.48,5.55,3.67,6.87,5.63,4.93,7.28,9.49,14.81,15.3,24.02v-27.1c.58-.46,1.16-.92,1.74-1.38,1.26,1.39,3.59,2.75,3.63,4.17.3,11.63.17,23.28.17,35.5-8.45.64-8.61-7.15-11.89-11.14-3.59-4.37-6.18-9.56-9.2-14.39l-1.24.27Z"/>
  <path class="cls-1" d="m1020.07,870.91c-1.78-1.55-3.99-2.82-5.26-4.71-4.84-7.19-9.38-14.59-15.25-23.83,0,9.09.2,16.24-.15,23.35-.08,1.68-2.03,3.28-3.12,4.91l-1.94-1.03v-38.82c.64-.43,1.28-.87,1.93-1.3,8.47,7.29,11.91,18.76,20.13,27.81v-26.11c.65-.41,1.3-.81,1.94-1.22,1.17,1.45,3.33,2.89,3.36,4.37.28,11.67.16,23.35.16,35.03-.6.52-1.2,1.04-1.8,1.56Z"/>
  <path class="cls-1" d="m1280.75,804.51c-1.8-1.57-4.03-2.84-5.32-4.76-4.83-7.2-9.34-14.6-14.97-23.49v26.47c-.67.46-1.34.92-2,1.38-1.28-1.4-3.63-2.78-3.66-4.21-.3-11.68-.17-23.36-.17-37.25,3.1,2.21,5.49,3.14,6.67,4.88,5.06,7.51,9.77,15.25,15.8,22.63,0-7.21-.19-14.43.14-21.62.08-1.69,1.94-3.3,2.99-4.95.65.33,1.3.67,1.96,1v38.27c-.48.55-.96,1.1-1.44,1.66Z"/>
  <path class="cls-1" d="m712.48,784.32c-.72,3.32-1.04,6.79-2.24,9.93-2.83,7.39-10.76,11.27-18.44,9.47-7.83-1.83-12.45-9.09-12.55-19.7-.1-10.64,4.34-17.94,12.12-19.94,12.08-3.11,20.75,5.35,21.11,20.25Zm-27.67-.59c.61,2.71.44,6.47,2.21,8.7,2.15,2.71,5.97,5.75,8.98,5.66,3.03-.09,7.83-3.38,8.52-6.1,1.33-5.26,1.28-11.38-.14-16.62-.72-2.66-5.66-5.75-8.71-5.76-3.01-.02-6.6,3.12-8.88,5.77-1.56,1.8-1.31,5.16-1.98,8.36Z"/>
  <path class="cls-1" d="m1318.64,789.49c-2.54-3.12-10.53,1.73-8.22-6.93h12.93c2.74,10.5-1.67,19.51-10.35,21.22-9.79,1.92-17.4-4.03-18.61-15.21-.49-4.48-.27-9.23.67-13.63,1.61-7.52,8.15-11.89,15.83-11.46,7.23.4,11.08,3.83,12.78,12.96-3.06-1.72-5.5-2.44-6.99-4.05-4.89-5.28-12.71-4.7-14.83,2.2-1.59,5.17-1.26,11.21-.58,16.71.59,4.79,4.41,7.54,9.46,7.11,5.56-.48,7.46-4.32,7.91-8.92Z"/>
  <path class="cls-1" d="m1100.53,764.16c4.02,0,7.19.09,10.36-.02,6.8-.23,13.22.66,15.41,8.32,2.04,7.13-.84,12.51-7.91,15.65,2.91,4.94,5.65,9.6,8.4,14.26-.44.65-.89,1.3-1.33,1.94-2.33-1.52-5.11-2.64-6.86-4.65-2.21-2.54-3.22-6.12-5.45-8.64-1.34-1.52-3.99-1.87-6.97-3.14v14.95c-.58.44-1.16.89-1.74,1.33-1.31-1.42-3.71-2.81-3.74-4.26-.31-11.61-.17-23.24-.17-35.75Zm5.87,19.15c5.15-.07,10.61,2.06,13.64-3.58,1.04-1.94.72-6.78-.4-7.32-3.92-1.88-8.46-2.46-13.24-3.66v14.55Z"/>
  <path class="cls-1" d="m1150.3,869.81v-39.03c9.21-.33,18.79-2.09,24.93,6.84,5.18,7.53,5.14,16.24.65,24.07-5.69,9.91-15.67,8.27-25.58,8.12Zm5.82-33.27v27.85c5.9.2,11.59.49,14.68-5.3,3.19-5.98,3.14-12.53-.39-18.34-3.16-5.2-8.52-5.27-14.28-4.22Z"/>
  <path class="cls-1" d="m1223.65,805.31c-11.84-6.99-13.92-19.49-22.39-28.19v25.86c-.67.39-1.35.77-2.02,1.16-1.19-1.5-3.37-2.97-3.4-4.49-.29-11.65-.16-23.3-.16-37.16,3.14,2.33,5.52,3.33,6.73,5.13,5.06,7.53,9.78,15.29,15.55,24.46v-27.18c.62-.43,1.25-.86,1.87-1.29,1.27,1.42,3.61,2.82,3.64,4.28.3,11.64.17,23.28.17,37.43Z"/>
  <path class="cls-1" d="m1649.7,783.55c.1-14.52,8.65-22.55,20.68-19.41,9.02,2.35,13.48,12.13,11.4,25-1.59,9.82-8.2,15.48-17.37,14.85-9.45-.65-14.8-8.08-14.71-20.43Zm27.24.79c-.92-3.55-1.19-7.37-2.85-10.44-3.66-6.76-14.19-6.75-16.36.43-1.78,5.87-1.79,13.17.05,19,2.28,7.22,12.62,7.07,16.4.28,1.49-2.67,1.82-5.98,2.76-9.27Z"/>
  <path class="cls-1" d="m1486.84,783.75c.63-14.34,8.92-22.85,20.45-19.55,3.91,1.12,8.17,4.53,10.16,8.08,3.97,7.07,3.61,15.05.36,22.56-2.6,6.02-7.44,9.11-14.06,9.18-6.69.07-11.52-3.07-14.04-9.1-1.46-3.51-1.94-7.43-2.86-11.17Zm27.35.81c-.2-2.48-.18-4.1-.48-5.66-1.04-5.38-3.55-9.49-9.68-9.72-6.13-.23-9.46,3.36-10.05,8.98-.46,4.43-.9,9.46.76,13.33,1.31,3.06,5.8,6.55,8.89,6.56,3.11.01,6.78-3.58,9.16-6.45,1.5-1.81,1.09-5.2,1.4-7.05Z"/>
  <path class="cls-1" d="m1353.89,850.14c0,13.63-7.01,21.23-18.45,20.01-10.43-1.11-16.02-11.81-13.49-25.81,1.97-10.87,10.27-16.52,20.33-13.83,7.5,2.01,11.61,8.96,11.61,19.63Zm-26.78-.63c.31,2.93.24,5.05.8,6.99,1.37,4.72,4.12,8.17,9.54,8.28,5.35.11,9.02-2.79,9.64-7.81.62-5.04.82-10.6-.75-15.27-.91-2.71-5.68-5.7-8.7-5.69-2.99.01-6.6,3.13-8.74,5.84-1.62,2.05-1.37,5.59-1.78,7.66Z"/>
  <path class="cls-1" d="m982.42,775.99c-1.87-1.09-4.12-1.82-5.54-3.33-5.53-5.86-13.39-4.65-15.32,3.16-1.21,4.9-.92,10.42-.17,15.49.7,4.72,4.24,7.73,9.38,7.14,5.54-.63,7.38-4.5,7.61-10.05-2.6-.19-4.82-.36-7.03-.52q-1.47-6.37,13.43-5.03c-.72,4.4-.27,9.5-2.45,12.93-2.28,3.57-6.76,6.72-10.89,7.91-5.6,1.61-10.8-1.05-14.14-6.2-4.24-6.53-4.12-21.5.36-27.71,3.89-5.4,9.36-7.03,15.78-5.81,5.79,1.11,9.38,4.34,8.98,12.03Z"/>
  <path class="cls-1" d="m1166.53,804.34c-1.73-1.4-4.52-2.52-4.99-4.27-1.13-4.15-3.64-5.03-7.14-4.37-4.14.77-9.92-2.93-11.81,4.58-.41,1.65-3.44,2.64-5.26,3.93-.49-.51-.98-1.02-1.47-1.54,4.15-11.8,8.24-23.63,12.56-35.37.48-1.31,2.51-3.05,3.56-2.9,1.53.23,3.58,1.73,4.1,3.17,4.22,11.55,8.14,23.22,12.14,34.85-.57.64-1.14,1.27-1.71,1.91Zm-13.7-29.17c-.46-.03-.91-.07-1.37-.1-1.55,4.8-3.11,9.59-4.77,14.71h10.9c-1.71-5.25-3.24-9.93-4.76-14.61Z"/>
  <path class="cls-1" d="m1195.53,853.05v11.05h14.89c.94,3.48,1.7,6.1-3.25,5.94-5.71-.18-11.42-.04-17.63-.04v-39.24h20.93v5.25h-14.78v10.88h12.81c1.61,4.53.59,6.49-3.95,6.2-2.9-.19-5.83-.04-9.02-.04Z"/>
  <path class="cls-1" d="m1370.28,869.75h-5.89v-39.13c4.89,0,9.63-.39,14.28.09,7.61.77,11.53,5.89,11.18,13.73-.32,7.03-4.95,11.56-12.35,11.96-2.22.12-4.45.02-7.22.02v13.33Zm.16-16.82c5.12-2.24,9.46-3.31,12.55-5.88,1.28-1.07.96-6.83-.49-7.86-3.13-2.23-7.46-2.79-12.06-4.28v18.02Z"/>
  <path class="cls-1" d="m930.24,831.27c0,8.22.37,16.46-.1,24.64-.54,9.31-6,14.42-14.21,14.31-8.3-.11-13.49-5.36-13.83-14.64-.3-8-.06-16.01-.06-24.29,3.42-1.47,5.59-1.49,5.49,3.21-.14,6.64-.11,13.28,0,19.92.09,5.61,2.06,10.16,8.5,10.29,6.51.12,8.56-4.44,8.72-10.04.19-6.64-.13-13.29.24-19.91.09-1.71,1.92-3.32,2.96-4.98.77.5,1.54,1,2.31,1.49Z"/>
  <path class="cls-1" d="m1583.68,763.53c1.05,1.44,2.96,2.84,3.02,4.32.26,7.55.34,15.12-.09,22.66-.47,8.31-5.87,13.37-13.53,13.49-8.12.12-13.35-4.77-14.35-13.45-.18-1.59-.28-3.2-.28-4.8-.03-6.86-.01-13.71-.01-21.11,1.83-.1,3.46-.19,5.63-.31,0,8.02-.13,15.56.04,23.08.16,7.35,3.69,11.67,9.21,11.13,6.8-.67,8.16-5.65,8.16-11.4,0-7.31,0-14.62,0-21.93.74-.56,1.48-1.12,2.22-1.68Z"/>
  <path class="cls-1" d="m1267.59,853.03v11.15h15.15c.45.6.89,1.2,1.34,1.81-1.38,1.34-2.69,3.72-4.16,3.84-5.86.45-11.76.18-17.97.18v-39.14c6.95,0,13.7,0,20.46,0,.74,5.22.74,5.24-4.7,5.33-3.16.05-6.32,0-9.98,0v9.97c3.78,3.3,12.06-2.57,14.62,3.91-.35.98-.7,1.96-1.04,2.94h-13.72Z"/>
  <path class="cls-1" d="m1467,846.61c1.93,5.57-.17,6.77-4.31,6.49-2.92-.2-5.87-.04-9.16-.04v10.21c4.82,3.61,13.13-3.1,16.94,6.32h-22.56v-38.24c13.11-2.66,20.61-1.25,21.13,4.62h-15.34v10.64h13.3Z"/>
  <path class="cls-1" d="m1756.37,775.6c-3.18-2-4.67-3.28-6.4-3.95-2.72-1.06-5.64-2.36-8.41-2.24-1.34.06-3.98,3.78-3.56,4.66,1.13,2.35,3.49,4.18,5.58,5.97.79.68,2.16.65,3.25,1.01,7.97,2.64,10.69,6.17,9.72,12.69-.94,6.34-4.78,9.68-11.05,10.27-7.66.71-11.95-2.31-14.61-11.94,3.24,1.8,5.05,3.08,7.06,3.86,2.77,1.07,5.77,2.57,8.53,2.31,1.55-.15,4.25-3.87,3.86-5.27-.66-2.38-3.17-4.4-5.25-6.16-1.13-.96-2.97-1.08-4.51-1.54-5.94-1.81-9.63-5.31-8.66-12.02.89-6.1,5.39-9.66,12.17-9.88,6.63-.21,10.31,2.83,12.29,12.24Z"/>
  <path class="cls-1" d="m1476.38,774.72c-1.72-1.18-3.31-2.68-5.2-3.46-2.54-1.05-5.39-2.27-7.95-2-1.53.16-4.26,3.76-3.86,4.57,1.13,2.34,3.41,4.24,5.55,5.92,1.18.93,2.99,1.06,4.5,1.59,7.31,2.56,9.68,6.31,8.41,13.43-1.17,6.59-5.72,8.97-11.81,9.21-7.69.31-11.42-2.64-13.24-11.84,2.83,1.53,4.56,2.72,6.46,3.44,2.96,1.13,6.08,2.68,9.07,2.56,1.43-.05,4.26-4.21,3.77-5.32-1.12-2.53-3.81-4.43-6.06-6.36-.79-.67-2.18-.59-3.26-.96-7.37-2.49-10.32-6.27-9.43-12.32.97-6.58,5.59-9.12,11.54-9.78,6.83-.76,10.61,2.19,11.52,11.31Z"/>
  <path class="cls-1" d="m1034.73,830.72h20.6c.15,1.56.32,3.22.55,5.55h-15.61v10.56h13.67v6.23h-13.6v10.99h15.03c1.57,3.98,1.37,6.09-3.21,5.97-5.67-.15-11.35-.04-17.44-.04v-39.26Z"/>
  <path class="cls-1" d="m762.47,792.57c1.75,1.16,3.36,2.69,5.28,3.38,2.97,1.08,6.19,2.21,9.23,2.04,1.33-.08,3.92-4.04,3.44-4.98-1.27-2.53-3.53-5.18-6.06-6.34-4.89-2.24-11.04-2.48-12.56-9.13-1.57-6.83,2.13-12.26,9.09-13.64,8.52-1.69,13.1,1.28,15.08,11.51-2.91-1.82-4.56-3.22-6.47-3.95-2.74-1.05-5.72-2.27-8.5-2.09-1.36.09-3.96,3.97-3.52,4.75,1.28,2.31,3.7,4.08,5.89,5.77,1.02.78,2.58.85,3.88,1.3,7.37,2.59,10.27,6.67,9.05,13.2-1.18,6.3-5.3,9.35-11.58,9.63-7.69.34-11.5-2.44-12.25-11.45Z"/>
  <path class="cls-1" d="m1089.49,841.24c-2.37-1.22-3.94-2.26-5.67-2.87-2.94-1.04-5.95-2.28-8.98-2.43-1.04-.05-3.52,3.74-3.14,4.31,1.62,2.42,3.72,5.22,6.28,6.18,5.69,2.14,11.64,3.42,12.37,10.92.6,6.16-3.25,11.4-9.2,12.64-8.27,1.73-13.56-1.4-16.66-11.71,3.29,1.82,5.11,3.17,7.15,3.88,2.96,1.03,6.11,2.2,9.13,2.08,1.25-.05,3.76-3.96,3.28-4.93-1.23-2.51-3.43-5.23-5.92-6.31-5.63-2.45-12.24-3.3-12.33-11.57-.07-6.77,3.83-10.89,10.96-11.37,8-.54,11.5,2.17,12.73,11.18Z"/>
  <path class="cls-1" d="m825.12,765.18c0,8.22.23,16.45-.06,24.66-.3,8.32-5.48,13.69-12.96,14.15-7.77.48-13.96-3.77-14.82-12.04-.93-9.01-.21-18.19-.21-27.54h5.06c0,6.03-.04,11.91.02,17.79.03,2.74.09,5.5.45,8.21.7,5.31,3.86,8.41,9.24,8.1,5.19-.3,7.61-4.01,7.81-8.83.3-7.08-.05-14.2.32-21.27.09-1.66,1.97-3.23,3.02-4.84.71.54,1.42,1.07,2.13,1.61Z"/>
  <path class="cls-1" d="m669.83,777.96c-2.87-1.98-4.64-3.28-6.49-4.44-2.55-1.61-5.33-4.58-7.7-4.31-2.8.32-7.07,3.13-7.54,5.49-1.12,5.62-1.55,11.92-.12,17.38,2.02,7.72,10.22,8.54,15.48,2.54,1.44-1.65,3.9-2.4,6.97-4.19-1.28,9.02-5.56,12.79-12.54,13.53-7.38.78-14.08-2.52-15.43-9.65-1.36-7.15-1.28-15.01.16-22.15,1.36-6.73,8.97-9.95,15.98-8.76,6.99,1.19,10.09,4.72,11.23,14.56Z"/>
  <path class="cls-1" d="m963.28,840.97c-1.59-1.08-3.04-2.53-4.79-3.17-2.76-1.01-5.75-2.02-8.6-1.91-1.23.05-3.67,3.62-3.29,4.3,1.32,2.32,3.52,4.22,5.64,5.96.99.81,2.55.94,3.86,1.34,6.22,1.87,9.99,5.56,9.14,12.52-.75,6.21-5.16,9.97-11.78,10.21-7.81.29-11.38-2.38-13.54-11.76,2.85,1.5,4.56,2.62,6.43,3.32,2.96,1.11,6.05,2.7,9.03,2.58,1.48-.06,4.4-4.24,3.92-5.22-1.23-2.53-3.88-4.46-6.2-6.34-.99-.8-2.57-.89-3.88-1.28-6.11-1.82-9.25-5.71-8.4-12.26.73-5.58,5.23-9.04,11.83-9.21,7.24-.18,10.26,2.25,10.63,10.93Z"/>
  <path class="cls-1" d="m1123.93,841.53c-2.9-1.82-4.51-3.25-6.38-3.9-2.79-.97-5.79-1.88-8.67-1.78-1.12.04-3.38,3.57-2.96,4.38,1.22,2.35,3.44,4.24,5.48,6.06.77.68,2.17.62,3.25.97,7.88,2.56,10.52,5.98,9.67,12.7-.81,6.41-4.68,9.69-10.97,10.2-8.02.65-11.88-2.04-14.64-11.84,3.21,1.76,5.01,3.07,7.02,3.78,2.97,1.05,6.11,2.28,9.14,2.19,1.29-.04,3.91-3.9,3.46-4.86-1.2-2.52-3.59-4.6-5.82-6.47-1.14-.95-2.97-1.09-4.49-1.57-6.1-1.94-9.22-6.05-8.1-12.44,1.13-6.5,5.86-8.84,12.01-8.95,7.22-.12,10.27,2.37,12,11.53Z"/>
  <path class="cls-1" d="m1219.5,831.1c4.63-1.6,6.62-.02,7.86,4.12,2.35,7.81,5.21,15.47,8.42,24.81,2.35-7,3.59-12.74,6.17-17.78,2.17-4.24.03-12.46,9.88-11.62-4.34,12.61-8.46,24.8-12.81,36.9-.39,1.1-2.31,2.36-3.43,2.28-1.13-.07-2.71-1.52-3.15-2.71-4.42-11.94-8.64-23.95-12.94-36.01Z"/>
  <path class="cls-1" d="m1606.03,802.75v-32.49q-10.14-1.3-9.94-5.85h25.23q1.07,4.63-9.14,5.86c0,9.39-.15,18.92.07,28.44.1,4.52-1.49,5.76-6.22,4.05Z"/>
  <path class="cls-1" d="m1544.9,830.49v5.49c-3.47.15-6.6.29-10.2.45v32.67c-4.5,1.9-6.03.74-5.94-3.78.2-9.39.06-18.78.06-28.84-3.65-.23-6.96-.44-10.27-.65-.39-.59-.77-1.17-1.16-1.76,1.51-1.19,2.96-3.34,4.52-3.42,7.55-.36,15.12-.16,22.99-.16Z"/>
  <path class="cls-1" d="m870.48,771.21c-3.2-4.01-10.94,2.31-10.86-6.7h26.25q.79,4.09-9.74,5.97c0,9.42-.13,18.98.06,28.52.08,4.06-1.26,5.4-5.71,3.82v-31.61Z"/>
  <path class="cls-1" d="m1080.21,802.86c-4.63,1.65-5.99.37-5.91-3.71.2-9.55.06-19.11.06-29.23-3.58-.18-6.68-.34-10.13-.52-1.44-3.23-1.47-5.38,3.23-5.27,6.39.15,12.8-.14,19.18.2,1.59.08,3.09,1.86,4.63,2.86-.3.69-.61,1.38-.91,2.06-3.11.19-6.22.38-10.15.62v32.99Z"/>
  <path class="cls-1" d="m1428.87,764.49q.31,4.31-9.68,5.84v32.57c-4.31,1.41-5.92.41-5.82-3.83.21-9.58.07-19.17.07-29.2-3.68-.17-6.8-.32-10.24-.48-.19-1.52-.37-3.01-.6-4.89h26.27Z"/>
  <path class="cls-1" d="m1550.45,797.46v5.82h-19.68v-38.9h5.38v33.08h14.31Z"/>
  <path class="cls-1" d="m856.6,797.29v6.05h-19.63c0-12.27-.11-24.51.19-36.73.03-1.08,2.77-2.09,5.42-3.96v34.63h14.02Z"/>
  <path class="cls-1" d="m1314.65,863.97v5.72h-19.61v-38.64c3.57-1.27,5.44-.75,5.36,3.65-.17,9.53-.05,19.07-.05,29.26h14.31Z"/>
  <path class="cls-1" d="m1183.6,764.84v38.1c-3.97,1.47-5.67.6-5.6-3.71.18-10.26.18-20.52.02-30.78-.07-4.38,1.77-5.07,5.58-3.6Z"/>
  <path class="cls-1" d="m1236.21,802.96c0-11.84-.12-23.69.17-35.52.03-1.39,2.36-2.73,3.62-4.1.64.39,1.28.78,1.92,1.16,0,12.03.12,24.06-.18,36.08-.03,1.28-2.57,2.5-3.94,3.74-.53-.46-1.06-.91-1.58-1.37Z"/>
  <path class="cls-1" d="m1633.35,802.62c0-11.41-.13-22.82.14-34.22.04-1.64,2-3.23,3.07-4.84.74.34,1.47.68,2.21,1.02,0,11.83.11,23.66-.15,35.49-.03,1.43-2.06,2.81-3.16,4.21-.71-.55-1.42-1.11-2.12-1.66Z"/>
  <path class="cls-1" d="m976.13,869.08c0-11.6-.13-23.2.16-34.79.04-1.49,2.28-2.93,3.5-4.39l1.95,1.22c0,11.8.12,23.61-.16,35.41-.03,1.42-2.2,2.8-3.38,4.2-.69-.55-1.39-1.1-2.08-1.65Z"/>
  <path class="cls-1" d="m1391.98,804.17c-1.23-1.47-3.49-2.91-3.53-4.41-.3-11.64-.16-23.28-.16-34.93l1.9-1.2c1.22,1.46,3.45,2.9,3.49,4.39.29,11.64.16,23.29.16,34.93-.62.4-1.24.81-1.86,1.21Z"/>
  <path class="cls-1" d="m899.07,763.4c1.09,1.49,3.1,2.96,3.14,4.47.26,11.65.15,23.31.15,34.96-.57.43-1.13.87-1.7,1.3-1.28-1.4-3.63-2.77-3.67-4.2-.3-11.64-.17-23.3-.17-34.95l2.25-1.59Z"/>
  <path class="cls-1" d="m1356.02,810.56v-51.6c.72-.01,1.43-.03,2.15-.04.82,17.2.36,34.42.24,51.63-.8,0-1.59.01-2.39.02Z"/>
  <path class="cls-1" d="m1020.5,784.87c2.88,3.41,5.77,6.83,9.14,10.82"/>
</svg>